<svg width="20" height="21" viewBox="0 0 20 21" fill="none" xmlns="http://www.w3.org/2000/svg">
<path fill-rule="evenodd" clip-rule="evenodd" d="M10 18.5C12.1217 18.5 14.1566 17.6571 15.6569 16.1569C17.1571 14.6566 18 12.6217 18 10.5C18 8.37827 17.1571 6.34344 15.6569 4.84315C14.1566 3.34285 12.1217 2.5 10 2.5C7.87827 2.5 5.84344 3.34285 4.34315 4.84315C2.84285 6.34344 2 8.37827 2 10.5C2 12.6217 2.84285 14.6566 4.34315 16.1569C5.84344 17.6571 7.87827 18.5 10 18.5ZM11 6.5C11 6.23478 10.8946 5.98043 10.7071 5.79289C10.5196 5.60536 10.2652 5.5 10 5.5C9.73478 5.5 9.48043 5.60536 9.29289 5.79289C9.10536 5.98043 9 6.23478 9 6.5V10.5C9.00006 10.7652 9.10545 11.0195 9.293 11.207L12.121 14.036C12.2139 14.1289 12.3242 14.2026 12.4456 14.2529C12.567 14.3032 12.6971 14.3291 12.8285 14.3291C12.9599 14.3291 13.09 14.3032 13.2114 14.2529C13.3328 14.2026 13.4431 14.1289 13.536 14.036C13.6289 13.9431 13.7026 13.8328 13.7529 13.7114C13.8032 13.59 13.8291 13.4599 13.8291 13.3285C13.8291 13.1971 13.8032 13.067 13.7529 12.9456C13.7026 12.8242 13.6289 12.7139 13.536 12.621L11 10.086V6.5Z" fill="#023047"/>
</svg>
